<svg id="visual" viewBox="0 0 960 540" width="960" height="540" xmlns="http://www.w3.org/2000/svg" xmlns:xlink="http://www.w3.org/1999/xlink" version="1.1"><path d="M0 77L120 77L120 87L240 87L240 152L360 152L360 114L480 114L480 125L600 125L600 60L720 60L720 141L840 141L840 125L960 125L960 66L960 0L960 0L840 0L840 0L720 0L720 0L600 0L600 0L480 0L480 0L360 0L360 0L240 0L240 0L120 0L120 0L0 0Z" fill="#fa69f1"></path><path d="M0 131L120 131L120 185L240 185L240 217L360 217L360 228L480 228L480 206L600 206L600 174L720 174L720 260L840 260L840 228L960 228L960 185L960 64L960 123L840 123L840 139L720 139L720 58L600 58L600 123L480 123L480 112L360 112L360 150L240 150L240 85L120 85L120 75L0 75Z" fill="#e351ca"></path><path d="M0 266L120 266L120 438L240 438L240 341L360 341L360 363L480 363L480 406L600 406L600 368L720 368L720 390L840 390L840 449L960 449L960 395L960 183L960 226L840 226L840 258L720 258L720 172L600 172L600 204L480 204L480 226L360 226L360 215L240 215L240 183L120 183L120 129L0 129Z" fill="#ca3ba6"></path><path d="M0 541L120 541L120 541L240 541L240 541L360 541L360 541L480 541L480 541L600 541L600 541L720 541L720 541L840 541L840 541L960 541L960 541L960 393L960 447L840 447L840 388L720 388L720 366L600 366L600 404L480 404L480 361L360 361L360 339L240 339L240 436L120 436L120 264L0 264Z" fill="#b02385"></path></svg>