<svg id="visual" viewBox="0 0 960 540" width="960" height="540" xmlns="http://www.w3.org/2000/svg" xmlns:xlink="http://www.w3.org/1999/xlink" version="1.1"><rect x="0" y="0" width="960" height="540" fill="#676767"></rect><path d="M0 416L22.8 416.8C45.7 417.7 91.3 419.3 137 425.8C182.7 432.3 228.3 443.7 274 445.7C319.7 447.7 365.3 440.3 411.2 430.2C457 420 503 407 548.8 407.5C594.7 408 640.3 422 686 428.2C731.7 434.3 777.3 432.7 823 434C868.7 435.3 914.3 439.7 937.2 441.8L960 444L960 0L937.2 0C914.3 0 868.7 0 823 0C777.3 0 731.7 0 686 0C640.3 0 594.7 0 548.8 0C503 0 457 0 411.2 0C365.3 0 319.7 0 274 0C228.3 0 182.7 0 137 0C91.3 0 45.7 0 22.8 0L0 0Z" fill="#aa00ff"></path><path d="M0 352L22.8 348.7C45.7 345.3 91.3 338.7 137 343.3C182.7 348 228.3 364 274 371.5C319.7 379 365.3 378 411.2 377.5C457 377 503 377 548.8 370.5C594.7 364 640.3 351 686 351.2C731.7 351.3 777.3 364.7 823 369C868.7 373.3 914.3 368.7 937.2 366.3L960 364L960 0L937.2 0C914.3 0 868.7 0 823 0C777.3 0 731.7 0 686 0C640.3 0 594.7 0 548.8 0C503 0 457 0 411.2 0C365.3 0 319.7 0 274 0C228.3 0 182.7 0 137 0C91.3 0 45.7 0 22.8 0L0 0Z" fill="#bb00ff"></path><path d="M0 298L22.8 294.5C45.7 291 91.3 284 137 284.5C182.7 285 228.3 293 274 298.5C319.7 304 365.3 307 411.2 301.7C457 296.3 503 282.7 548.8 281C594.7 279.3 640.3 289.7 686 291.8C731.7 294 777.3 288 823 289C868.7 290 914.3 298 937.2 302L960 306L960 0L937.2 0C914.3 0 868.7 0 823 0C777.3 0 731.7 0 686 0C640.3 0 594.7 0 548.8 0C503 0 457 0 411.2 0C365.3 0 319.7 0 274 0C228.3 0 182.7 0 137 0C91.3 0 45.7 0 22.8 0L0 0Z" fill="#cb00ff"></path><path d="M0 242L22.8 239.3C45.7 236.7 91.3 231.3 137 226.8C182.7 222.3 228.3 218.7 274 219.3C319.7 220 365.3 225 411.2 225C457 225 503 220 548.8 221.5C594.7 223 640.3 231 686 230.7C731.7 230.3 777.3 221.7 823 219C868.7 216.3 914.3 219.7 937.2 221.3L960 223L960 0L937.2 0C914.3 0 868.7 0 823 0C777.3 0 731.7 0 686 0C640.3 0 594.7 0 548.8 0C503 0 457 0 411.2 0C365.3 0 319.7 0 274 0C228.3 0 182.7 0 137 0C91.3 0 45.7 0 22.8 0L0 0Z" fill="#da00ff"></path><path d="M0 169L22.8 165.2C45.7 161.3 91.3 153.7 137 148.8C182.7 144 228.3 142 274 143.3C319.7 144.7 365.3 149.3 411.2 146.3C457 143.3 503 132.7 548.8 127.2C594.7 121.7 640.3 121.3 686 128.3C731.7 135.3 777.3 149.7 823 157.2C868.7 164.7 914.3 165.3 937.2 165.7L960 166L960 0L937.2 0C914.3 0 868.7 0 823 0C777.3 0 731.7 0 686 0C640.3 0 594.7 0 548.8 0C503 0 457 0 411.2 0C365.3 0 319.7 0 274 0C228.3 0 182.7 0 137 0C91.3 0 45.7 0 22.8 0L0 0Z" fill="#e900ff"></path><path d="M0 54L22.8 55.7C45.7 57.3 91.3 60.7 137 60.5C182.7 60.3 228.3 56.7 274 57.5C319.7 58.3 365.3 63.7 411.2 66.5C457 69.3 503 69.7 548.8 68.3C594.7 67 640.3 64 686 65.8C731.7 67.7 777.3 74.3 823 74.5C868.7 74.7 914.3 68.3 937.2 65.2L960 62L960 0L937.2 0C914.3 0 868.7 0 823 0C777.3 0 731.7 0 686 0C640.3 0 594.7 0 548.8 0C503 0 457 0 411.2 0C365.3 0 319.7 0 274 0C228.3 0 182.7 0 137 0C91.3 0 45.7 0 22.8 0L0 0Z" fill="#f700ff"></path></svg>