<svg id="visual" viewBox="0 0 900 600" width="900" height="600" xmlns="http://www.w3.org/2000/svg" xmlns:xlink="http://www.w3.org/1999/xlink" version="1.1"><rect x="0" y="0" width="900" height="600" fill="#F476FF"></rect><path d="M0 180L37.5 181.8C75 183.7 150 187.3 225 184C300 180.7 375 170.3 450 167.5C525 164.7 600 169.3 675 176C750 182.7 825 191.3 862.5 195.7L900 200L900 0L862.5 0C825 0 750 0 675 0C600 0 525 0 450 0C375 0 300 0 225 0C150 0 75 0 37.5 0L0 0Z" fill="#f25eff"></path><path d="M0 133L37.5 131.7C75 130.3 150 127.7 225 131.5C300 135.3 375 145.7 450 146.5C525 147.3 600 138.7 675 133.7C750 128.7 825 127.3 862.5 126.7L900 126L900 0L862.5 0C825 0 750 0 675 0C600 0 525 0 450 0C375 0 300 0 225 0C150 0 75 0 37.5 0L0 0Z" fill="#e04ff6"></path><path d="M0 99L37.5 103.5C75 108 150 117 225 116.8C300 116.7 375 107.3 450 102.8C525 98.3 600 98.7 675 102C750 105.3 825 111.7 862.5 114.8L900 118L900 0L862.5 0C825 0 750 0 675 0C600 0 525 0 450 0C375 0 300 0 225 0C150 0 75 0 37.5 0L0 0Z" fill="#ce40ee"></path><path d="M0 86L37.5 85.3C75 84.7 150 83.3 225 84C300 84.7 375 87.3 450 84.3C525 81.3 600 72.7 675 69.8C750 67 825 70 862.5 71.5L900 73L900 0L862.5 0C825 0 750 0 675 0C600 0 525 0 450 0C375 0 300 0 225 0C150 0 75 0 37.5 0L0 0Z" fill="#bc30e5"></path><path d="M0 26L37.5 26.2C75 26.3 150 26.7 225 29C300 31.3 375 35.7 450 38C525 40.3 600 40.7 675 38.8C750 37 825 33 862.5 31L900 29L900 0L862.5 0C825 0 750 0 675 0C600 0 525 0 450 0C375 0 300 0 225 0C150 0 75 0 37.5 0L0 0Z" fill="#a91fdd"></path></svg>