<svg id="visual" viewBox="0 0 900 675" preserveAspectRatio="xMidYMin slice" width="900" height="675" xmlns="http://www.w3.org/2000/svg" xmlns:xlink="http://www.w3.org/1999/xlink" version="1.1"><rect x="0" y="0" width="900" height="675" fill="#001220"></rect><path d="M777 0L772 0L772 135L774 135L774 270L762 270L762 405L766 405L766 540L797 540L797 675L0 675L0 540L0 540L0 405L0 405L0 270L0 270L0 135L0 135L0 0L0 0Z" fill="#9900ff"></path><path d="M738 0L731 0L731 135L691 135L691 270L694 270L694 405L712 405L712 540L718 540L718 675L0 675L0 540L0 540L0 405L0 405L0 270L0 270L0 135L0 135L0 0L0 0Z" fill="#870fe0"></path><path d="M600 0L617 0L617 135L615 135L615 270L610 270L610 405L615 405L615 540L616 540L616 675L0 675L0 540L0 540L0 405L0 405L0 270L0 270L0 135L0 135L0 0L0 0Z" fill="#7515c2"></path><path d="M529 0L565 0L565 135L553 135L553 270L548 270L548 405L539 405L539 540L558 540L558 675L0 675L0 540L0 540L0 405L0 405L0 270L0 270L0 135L0 135L0 0L0 0Z" fill="#6418a5"></path><path d="M455 0L472 0L472 135L447 135L447 270L472 270L472 405L444 405L444 540L479 540L479 675L0 675L0 540L0 540L0 405L0 405L0 270L0 270L0 135L0 135L0 0L0 0Z" fill="#541888"></path><path d="M387 0L387 0L387 135L379 135L379 270L411 270L411 405L422 405L422 540L401 540L401 675L0 675L0 540L0 540L0 405L0 405L0 270L0 270L0 135L0 135L0 0L0 0Z" fill="#44176c"></path><path d="M288 0L309 0L309 135L338 135L338 270L331 270L331 405L306 405L306 540L306 540L306 675L0 675L0 540L0 540L0 405L0 405L0 270L0 270L0 135L0 135L0 0L0 0Z" fill="#351552"></path><path d="M211 0L229 0L229 135L235 135L235 270L217 270L217 405L235 405L235 540L263 540L263 675L0 675L0 540L0 540L0 405L0 405L0 270L0 270L0 135L0 135L0 0L0 0Z" fill="#261238"></path><path d="M155 0L168 0L168 135L153 135L153 270L184 270L184 405L159 405L159 540L185 540L185 675L0 675L0 540L0 540L0 405L0 405L0 270L0 270L0 135L0 135L0 0L0 0Z" fill="#190c21"></path><path d="M71 0L88 0L88 135L97 135L97 270L85 270L85 405L86 405L86 540L100 540L100 675L0 675L0 540L0 540L0 405L0 405L0 270L0 270L0 135L0 135L0 0L0 0Z" fill="#030005"></path></svg>