<svg id="visual" viewBox="0 0 960 540" width="960" height="540" xmlns="http://www.w3.org/2000/svg" xmlns:xlink="http://www.w3.org/1999/xlink" version="1.1"><rect x="0" y="0" width="960" height="540" fill="#001220"></rect><defs><linearGradient id="grad1_0" x1="43.8%" y1="100%" x2="100%" y2="0%"><stop offset="14.444444444444446%" stop-color="#001220" stop-opacity="1"></stop><stop offset="85.55555555555554%" stop-color="#001220" stop-opacity="1"></stop></linearGradient></defs><defs><linearGradient id="grad2_0" x1="0%" y1="100%" x2="56.3%" y2="0%"><stop offset="14.444444444444446%" stop-color="#001220" stop-opacity="1"></stop><stop offset="85.55555555555554%" stop-color="#001220" stop-opacity="1"></stop></linearGradient></defs><g transform="translate(960, 540)"><path d="M-351 0C-345.8 -45.1 -340.5 -90.2 -324.3 -134.3C-308 -178.5 -280.8 -221.7 -243.2 -243.2C-205.7 -264.8 -157.8 -264.7 -115.6 -279C-73.3 -293.4 -36.7 -322.2 0 -351L0 0Z" fill="#fa3cf4"></path></g><g transform="translate(0, 0)"><path d="M351 0C348.2 47.7 345.4 95.3 324.3 134.3C303.2 173.3 263.8 203.6 227 227C190.2 250.4 156 266.9 118.6 286.4C81.2 305.9 40.6 328.5 0 351L0 0Z" fill="#fa3cf4"></path></g></svg>