<?xml version="1.0" standalone="no"?>
<!DOCTYPE svg PUBLIC "-//W3C//DTD SVG 20010904//EN"
 "http://www.w3.org/TR/2001/REC-SVG-20010904/DTD/svg10.dtd">
<svg version="1.0" xmlns="http://www.w3.org/2000/svg"
 width="500.000000pt" height="500.000000pt" viewBox="0 0 500.000000 500.000000"
 preserveAspectRatio="xMidYMid meet">

<g transform="translate(0.000000,500.000000) scale(0.100000,-0.100000)"
fill="#000000" stroke="none">
<path d="M980 4989 c-189 -22 -364 -75 -499 -151 -105 -60 -260 -215 -320
-322 -57 -100 -114 -271 -138 -406 -17 -98 -18 -202 -18 -1610 0 -1688 -4
-1596 74 -1826 55 -165 108 -251 226 -369 118 -118 204 -171 369 -226 230 -78
138 -74 1826 -74 1688 0 1596 -4 1826 74 165 55 251 108 369 226 118 118 171
204 226 369 78 230 74 138 74 1826 0 1688 4 1596 -74 1826 -55 165 -108 251
-226 369 -118 118 -204 171 -369 226 -231 78 -123 73 -1786 75 -817 1 -1519
-2 -1560 -7z m780 -2066 c-1 -5 -6 -35 -13 -68 l-13 -60 -109 -5 -108 -5 -73
-343 c-39 -188 -74 -349 -78 -357 -4 -11 -21 -15 -65 -15 -33 0 -62 4 -65 9
-7 10 15 118 120 601 25 116 30 110 -87 110 l-102 0 6 43 c3 24 11 55 16 70
l11 27 280 0 c154 0 280 -3 280 -7z m600 -10 c0 -10 -6 -40 -13 -68 l-13 -50
-248 -3 -248 -2 7 32 c4 18 11 50 16 71 l10 37 244 0 c227 0 245 -1 245 -17z
m562 -6 c47 -22 99 -73 123 -123 27 -55 25 -160 -4 -237 -31 -80 -123 -177
-207 -218 l-64 -32 33 -41 c73 -89 137 -174 137 -180 0 -3 -36 -6 -80 -6 l-80
0 -62 76 c-117 142 -113 134 -97 211 l14 68 73 6 c58 4 80 11 114 35 54 37 83
80 98 144 11 46 10 54 -11 98 -35 68 -68 82 -201 82 -93 0 -107 -2 -112 -17
-3 -10 -12 -52 -20 -93 -8 -41 -29 -140 -46 -220 -17 -80 -37 -176 -45 -215
-8 -38 -21 -92 -28 -120 l-12 -50 -59 -3 c-32 -2 -62 1 -66 5 -5 4 14 112 41
238 27 127 65 304 83 395 19 91 38 178 41 193 l8 29 196 -4 c156 -3 204 -8
233 -21z m448 -59 c-115 -542 -113 -529 -101 -567 16 -57 61 -93 119 -99 27
-2 67 1 87 8 52 17 121 83 139 133 9 23 41 161 71 307 31 146 58 273 61 283 4
14 17 17 71 17 l66 0 -7 -47 c-3 -26 -22 -121 -42 -212 -88 -406 -91 -417
-178 -506 -98 -100 -235 -144 -357 -115 -42 10 -64 24 -104 64 -79 80 -90 142
-55 307 10 52 35 169 54 261 19 92 40 185 46 207 l11 41 68 0 68 0 -17 -82z
m-1083 -291 c-2 -7 -10 -38 -17 -70 l-11 -57 -244 0 c-134 0 -246 3 -248 8 -2
4 3 35 11 70 l14 62 250 0 c199 0 249 -3 245 -13z m-77 -358 c0 -21 -23 -104
-33 -116 -13 -18 -487 -19 -487 -1 0 6 5 38 12 70 l12 58 248 0 c168 0 248 -3
248 -11z"/>
</g>
</svg>
